<!DOCTYPE svg PUBLIC "-//W3C//DTD SVG 1.1//EN" "http://www.w3.org/Graphics/SVG/1.1/DTD/svg11.dtd">

<!-- Uploaded to: SVG Repo, www.svgrepo.com, Transformed by: SVG Repo Mixer Tools -->
<svg width="100px" height="100px" viewBox="0 0 1024 1024" class="icon" version="1.1" xmlns="http://www.w3.org/2000/svg" fill="#000000">

<g id="SVGRepo_bgCarrier" stroke-width="0"/>

<g id="SVGRepo_tracerCarrier" stroke-linecap="round" stroke-linejoin="round"/>

<g id="SVGRepo_iconCarrier">

<path d="M432.256 277.6832v-49.152h-86.7328c-38.656 0-70.3232 28.6208-70.3232 64.2048V771.84c0 35.584 31.6672 64.1792 70.3232 64.1792h380.6208c38.6304 0 70.3232-28.672 70.2464-64.2048V292.736c0-35.584-31.6672-64.2048-70.3232-64.2048h-88.192v49.152h88.192c10.752 0 19.4816 7.1936 19.4816 14.976v479.1296c0 7.7312-8.7552 14.9504-19.4816 14.9504H345.5232c-10.752 0-19.4816-7.168-19.4816-14.9504V292.6592c0-7.7312 8.7552-14.976 19.4816-14.976h86.7328z" fill="#babe98"/>

<path d="M685.568 694.3488v49.152H386.176v-49.152H685.568z m0-75.6224v49.152H386.176v-49.152H685.568zM479.232 228.48l-1.1008 7.3472a58.4192 58.4192 0 0 0 57.7536 66.4576 58.4192 58.4192 0 0 0 58.3168-58.368l-0.1536-4.0704-0.4352-4.0448-1.0752-7.3216h44.16V294.4c0 14.0288-10.6496 25.6-24.2688 27.1104l-2.9696 0.1536h-147.2c-14.0032 0-25.6-10.6496-27.0592-24.2944l-0.1792-2.9696V228.48h44.2112z" fill="#babe98"/>

<path d="M535.8592 308.6848a64.8192 64.8192 0 0 0 64.1024-73.8048A64.8704 64.8704 0 0 0 535.8592 179.2a64.8704 64.8704 0 0 0-64.7168 64.7424 64.7168 64.7168 0 0 0 64.7168 64.7424z m-26.8288-73.8048a28.3904 28.3904 0 0 1 55.2192 9.0624 28.416 28.416 0 0 1-56.7552 0c0-3.2256 0.512-6.2208 1.536-9.0624z" fill="#babe98"/>

<path d="M431.2576 576.6144c-11.1104 0-20.5568-2.9952-27.648-9.0624l-0.2048-0.1536-6.528-6.3488 134.016-157.3632 53.248 45.6448-78.336 92.032c-10.5984 12.4416-28.9792 24.1408-47.9232 30.4384a84.2752 84.2752 0 0 1-26.624 4.8128z m150.9888-136.5504l-41.7024-35.84 36.5824-42.496a14.592 14.592 0 0 1 20.6336-1.536l19.5328 16.7424a14.592 14.592 0 0 1 1.536 20.608l-36.5824 42.496z m-41.7792 141.6704h-28.0832a9.472 9.472 0 0 1-9.4976-9.4976v-9.3696a9.472 9.472 0 0 1 9.4976-9.4976h28.0832a9.472 9.472 0 0 1 9.5232 9.4976v9.3696a9.472 9.472 0 0 1-9.5232 9.4976z m55.4496 0h-28.0832a9.472 9.472 0 0 1-9.4976-9.4976v-9.3696a9.472 9.472 0 0 1 9.4976-9.4976h28.0832a9.472 9.472 0 0 1 9.5232 9.4976v9.3696a9.472 9.472 0 0 1-9.5232 9.4976z m55.552 0H623.36a9.472 9.472 0 0 1-9.5232-9.4976v-9.3696a9.472 9.472 0 0 1 9.5232-9.4976h28.0832a9.472 9.472 0 0 1 9.5232 9.4976v9.3696a9.5744 9.5744 0 0 1-9.5232 9.4976z" fill="#ED7F10"/>

</g>

</svg>