<?xml version="1.0" standalone="no"?>
<!DOCTYPE svg PUBLIC "-//W3C//DTD SVG 20010904//EN"
 "http://www.w3.org/TR/2001/REC-SVG-20010904/DTD/svg10.dtd">
<svg version="1.0" xmlns="http://www.w3.org/2000/svg"
 width="160.000000pt" height="160.000000pt" viewBox="0 0 160.000000 160.000000"
 preserveAspectRatio="xMidYMid meet">
<metadata>
Created by potrace 1.14, written by Peter Selinger 2001-2017
</metadata>
<g transform="translate(0.000000,160.000000) scale(0.100000,-0.100000)"
fill="#000000" stroke="none">
<path d="M774 1548 c-73 -33 -57 -154 21 -159 62 -5 98 27 98 86 0 52 -71 95
-119 73z"/>
<path d="M500 1495 c-28 -53 -4 -124 69 -203 40 -44 63 -49 56 -12 -2 11 1 22
6 25 5 4 7 10 5 14 -3 4 -8 23 -11 42 -13 75 -34 126 -55 133 -8 3 -25 10 -36
15 -18 8 -24 5 -34 -14z"/>
<path d="M1085 1509 c-4 -5 -9 -7 -13 -5 -13 8 -40 -20 -57 -59 -17 -40 -30
-195 -16 -195 16 0 92 86 110 124 25 51 27 63 17 103 -7 32 -30 50 -41 32z"/>
<path d="M943 1407 c-11 -13 -26 -38 -34 -55 -8 -18 -17 -32 -20 -32 -3 0 -6
-6 -7 -12 -1 -7 -4 -35 -8 -61 l-7 -49 32 5 c51 8 56 18 55 99 -1 40 3 84 8
97 12 33 5 35 -19 8z"/>
<path d="M659 1415 c-1 -5 0 -14 1 -20 10 -40 10 -126 0 -144 -10 -19 -7 -23
22 -35 18 -8 36 -12 40 -10 5 3 8 0 8 -6 0 -6 5 -8 11 -5 13 9 7 72 -11 105
-7 14 -13 27 -13 30 1 8 -10 34 -19 45 -5 6 -15 19 -23 30 -8 11 -15 16 -16
10z"/>
<path d="M313 1352 c-13 -2 -32 -15 -43 -29 -44 -57 -6 -136 65 -136 73 0 110
82 63 135 -25 27 -49 36 -85 30z"/>
<path d="M1133 1334 c-10 -15 -42 -50 -71 -80 -44 -44 -52 -57 -46 -78 3 -15
10 -26 16 -26 5 0 7 -4 3 -9 -3 -5 -1 -12 4 -16 22 -13 87 91 98 157 3 18 6
38 7 43 1 6 5 16 9 23 15 24 -2 12 -20 -14z"/>
<path d="M1270 1352 c-14 -2 -34 -13 -46 -23 -20 -18 -22 -32 -16 -98 3 -25
59 -51 95 -44 30 6 60 42 63 77 4 52 -44 96 -96 88z"/>
<path d="M479 1345 c-5 -9 -4 -51 0 -57 2 -2 4 -14 7 -27 6 -35 55 -121 75
-132 14 -7 20 -1 33 33 l17 41 -53 49 c-29 27 -52 54 -50 59 1 5 -2 9 -7 9 -5
0 -11 8 -13 18 -2 9 -6 13 -9 7z"/>
<path d="M622 1134 c-19 -38 -21 -49 -10 -56 21 -14 87 -48 93 -48 7 0 36 67
41 97 5 24 -1 30 -37 37 -13 3 -33 8 -44 11 -17 5 -25 -2 -43 -41z"/>
<path d="M938 1175 c-3 -3 -16 -8 -28 -10 -35 -7 -44 -20 -35 -52 5 -15 8 -31
7 -35 -1 -5 3 -8 9 -8 6 0 9 -6 6 -14 -10 -24 21 -27 61 -5 62 35 63 35 39 84
-20 40 -43 56 -59 40z"/>
<path d="M787 1143 c-3 -4 -7 -21 -8 -38 -2 -16 -7 -32 -10 -35 -4 -3 -9 -16
-10 -30 -4 -23 -1 -24 39 -23 76 2 72 -2 52 54 -11 28 -18 56 -17 62 2 13 -39
22 -46 10z"/>
<path d="M265 1130 c-2 -4 10 -17 28 -30 18 -13 49 -42 70 -66 36 -40 39 -42
72 -31 58 17 52 46 -20 85 -46 25 -143 53 -150 42z"/>
<path d="M1319 1129 c-8 -5 -23 -9 -33 -9 -25 0 -104 -39 -133 -66 l-23 -21
38 -19 c20 -10 40 -23 44 -29 5 -6 8 -6 8 1 0 17 90 109 124 126 26 14 27 15
8 20 -11 3 -26 2 -33 -3z"/>
<path d="M121 1107 c-33 -16 -34 -26 -11 -65 18 -30 63 -58 84 -53 4 1 14 -3
21 -9 7 -6 43 -10 79 -9 l66 2 -17 26 c-9 14 -26 34 -37 43 -12 10 -26 22 -32
27 -22 18 -94 51 -111 51 -10 0 -29 -6 -42 -13z"/>
<path d="M1387 1095 c-47 -26 -129 -104 -121 -116 7 -12 121 -11 129 1 4 6 10
8 15 5 5 -3 31 5 57 19 26 14 44 25 39 26 -5 0 -4 6 1 13 24 30 22 47 -7 62
-36 19 -67 16 -113 -10z"/>
<path d="M557 1040 c-9 -11 -12 -22 -6 -25 5 -4 21 -29 35 -56 l25 -50 41 42
42 43 -40 18 c-21 9 -48 24 -59 33 -19 13 -22 13 -38 -5z"/>
<path d="M1001 1030 c-25 -16 -48 -27 -52 -24 -4 2 -10 0 -14 -6 -7 -11 53
-80 71 -80 6 0 17 12 23 28 5 15 18 39 28 54 15 25 16 29 3 43 -14 13 -20 11
-59 -15z"/>
<path d="M482 985 c-7 -8 -21 -15 -31 -15 -27 0 -31 -21 -14 -74 14 -41 19
-47 37 -41 29 8 58 16 76 19 21 4 19 35 -6 81 -24 44 -42 52 -62 30z"/>
<path d="M1093 985 c-7 -8 -21 -30 -30 -50 -15 -31 -15 -37 -2 -50 7 -7 25
-16 39 -19 14 -2 32 -7 41 -11 19 -7 36 11 41 45 1 14 7 28 12 31 14 10 -2 28
-44 49 -46 23 -42 23 -57 5z"/>
<path d="M690 936 c-19 -24 -38 -42 -42 -40 -16 10 -25 -35 -24 -111 l2 -80
56 -56 c33 -33 61 -53 68 -49 6 4 39 5 74 4 l62 -4 56 55 56 55 -3 58 c-1 31
1 64 5 72 6 11 -8 33 -52 78 l-60 62 -82 0 -81 0 -35 -44z"/>
<path d="M186 936 c4 -9 9 -15 11 -12 3 3 14 -4 26 -14 11 -11 24 -17 29 -14
4 3 8 1 8 -4 0 -13 110 -49 133 -44 18 4 23 37 7 47 -6 4 -8 10 -5 15 10 17
-21 25 -95 26 -41 1 -85 5 -98 9 -18 6 -21 4 -16 -9z"/>
<path d="M1235 926 c-9 -14 -18 -31 -19 -38 -1 -7 -5 -19 -10 -27 -7 -11 -1
-13 35 -8 70 10 122 28 134 47 3 5 10 8 14 5 5 -2 19 7 32 22 l24 26 -30 -8
c-45 -11 -138 -13 -152 -3 -8 6 -17 1 -28 -16z"/>
<path d="M112 869 c-21 -8 -54 -34 -52 -41 1 -2 -2 -11 -5 -20 -11 -27 24 -87
54 -95 42 -11 62 -6 91 22 34 32 33 76 -2 111 -28 28 -54 35 -86 23z"/>
<path d="M1443 865 c-30 -13 -45 -38 -48 -81 -3 -39 58 -92 82 -72 10 8 13 7
13 -3 0 -11 2 -11 10 1 5 8 10 11 10 6 0 -6 13 3 29 18 21 20 27 34 24 54 -9
56 -29 79 -79 88 -6 1 -24 -4 -41 -11z"/>
<path d="M515 826 c-64 -22 -82 -48 -43 -61 13 -4 26 -7 31 -6 4 1 23 -5 42
-13 19 -8 36 -12 38 -8 7 12 5 102 -2 105 -3 2 -33 -6 -66 -17z"/>
<path d="M1039 842 c-4 -22 -5 -98 -2 -105 2 -4 13 -2 24 4 12 6 32 13 46 15
41 8 65 24 61 42 -3 9 -9 16 -15 15 -6 -1 -34 6 -62 17 -28 10 -52 15 -52 12z"/>
<path d="M1227 732 c-15 -3 -17 -10 -12 -30 10 -43 35 -75 48 -64 13 10 116 8
157 -3 l25 -7 -25 21 c-31 26 -41 33 -66 47 -20 12 -78 27 -90 24 -4 -1 -10 2
-13 7 -3 5 -14 7 -24 5z"/>
<path d="M348 725 c-3 -3 -15 -7 -26 -10 -33 -6 -84 -33 -117 -61 l-30 -25 30
7 c49 11 139 13 152 2 14 -11 38 21 48 65 7 25 5 27 -22 27 -16 0 -32 -2 -35
-5z"/>
<path d="M449 726 c-3 -12 -6 -22 -17 -60 -6 -22 -10 -40 -9 -41 1 0 21 -11
45 -23 35 -20 44 -21 55 -10 19 21 37 56 37 73 0 8 6 15 13 15 16 1 -38 30
-65 35 -11 2 -28 7 -39 10 -10 4 -20 4 -20 1z"/>
<path d="M1131 721 c-8 -5 -20 -7 -28 -4 -7 3 -13 0 -13 -6 0 -6 -9 -11 -20
-11 -15 0 -19 -6 -18 -25 1 -14 6 -25 10 -25 4 0 7 -3 6 -7 -3 -11 32 -63 42
-63 5 0 15 7 24 15 8 9 18 16 20 16 16 2 46 12 46 15 0 3 -7 20 -15 40 -15 35
-15 37 -15 54 0 12 -20 13 -39 1z"/>
<path d="M970 631 c-36 -34 -42 -44 -30 -51 8 -6 19 -10 23 -10 4 0 24 -11 44
-24 37 -26 63 -25 63 2 0 8 -7 23 -15 32 -8 9 -21 34 -28 55 l-13 38 -44 -42z"/>
<path d="M593 654 c3 -4 -2 -23 -12 -43 -11 -20 -19 -40 -19 -45 0 -5 -6 -13
-14 -17 -10 -7 -9 -9 4 -9 9 0 18 -5 20 -12 3 -8 12 -5 28 10 22 20 35 26 43
20 5 -4 37 29 37 38 0 17 -55 64 -74 64 -10 0 -17 -3 -13 -6z"/>
<path d="M1290 608 c0 -5 -4 -6 -10 -3 -5 3 -10 0 -10 -9 0 -21 82 -96 129
-117 40 -17 77 -17 112 1 15 9 16 14 6 41 -19 51 -58 72 -157 85 -19 3 -43 6
-52 8 -10 2 -18 0 -18 -6z"/>
<path d="M230 601 c-8 -5 -17 -8 -21 -5 -13 8 -79 -26 -94 -50 -25 -38 -27
-66 -4 -66 10 0 19 -4 19 -9 0 -17 68 -4 112 22 56 33 108 81 108 99 0 17 -96
24 -120 9z"/>
<path d="M364 544 c-21 -25 -57 -57 -79 -71 l-40 -25 50 7 c28 4 56 7 63 8 6
0 12 3 12 7 0 3 15 11 33 18 43 16 78 48 71 67 -4 8 -10 13 -14 10 -5 -3 -11
-1 -15 5 -4 6 -11 8 -16 5 -5 -4 -9 -1 -9 4 0 21 -17 10 -56 -35z"/>
<path d="M1172 570 c-35 -21 -34 -33 2 -60 35 -25 89 -50 97 -45 4 3 10 2 13
-3 2 -4 22 -9 43 -10 l38 -2 -25 18 c-14 9 -48 41 -76 69 -27 29 -52 53 -55
53 -2 0 -19 -9 -37 -20z"/>
<path d="M756 554 c-2 -6 -1 -15 4 -20 4 -5 12 -29 17 -54 7 -39 12 -45 33
-45 18 0 25 6 26 20 1 21 10 49 25 77 6 11 4 20 -4 25 -19 12 -96 10 -101 -3z"/>
<path d="M690 538 c0 -6 -3 -9 -6 -5 -8 7 -66 -21 -76 -36 -4 -6 -1 -20 5 -31
6 -12 12 -23 12 -26 3 -19 31 -48 40 -40 5 4 26 12 45 17 40 11 44 33 17 96
-15 35 -37 50 -37 25z"/>
<path d="M895 526 c-11 -32 -12 -36 -15 -38 -1 -2 -4 -18 -6 -35 -5 -29 -2
-33 18 -34 13 -1 26 -1 31 0 4 0 7 -4 7 -10 0 -5 5 -7 10 -4 6 3 10 1 10 -4 0
-8 7 -7 19 1 11 7 19 14 19 17 -1 14 15 51 21 51 4 0 8 7 8 16 0 8 -21 24 -46
36 -62 29 -68 29 -76 4z"/>
<path d="M529 412 c-17 -26 -33 -59 -36 -74 -3 -16 -8 -28 -12 -28 -3 0 -6
-18 -6 -40 0 -22 3 -40 7 -40 5 0 8 7 8 15 0 9 27 43 61 76 43 44 58 66 54 77
-4 10 -9 25 -12 34 -10 35 -33 28 -64 -20z"/>
<path d="M1040 445 c0 -8 -4 -15 -9 -15 -5 0 -12 -12 -15 -26 -6 -22 0 -33 41
-73 27 -25 61 -62 76 -81 23 -30 26 -31 18 -9 -5 14 -12 40 -14 58 -11 71 -97
200 -97 146z"/>
<path d="M302 389 c-51 -19 -67 -91 -29 -133 41 -47 103 -40 136 15 15 25 17
37 9 60 -5 16 -14 29 -19 29 -5 0 -9 7 -9 15 0 8 -6 15 -12 16 -7 0 -23 2 -34
3 -12 1 -30 -1 -42 -5z"/>
<path d="M1256 389 c-68 -19 -74 -134 -8 -157 95 -33 159 72 88 143 -17 17
-48 22 -80 14z"/>
<path d="M683 367 c-18 -8 -20 -17 -18 -84 2 -42 -1 -89 -6 -105 -7 -26 -6
-28 7 -17 21 17 75 125 67 133 -4 3 -2 6 3 6 5 0 10 18 11 40 1 36 -1 39 -22
38 -12 -1 -32 -6 -42 -11z"/>
<path d="M870 347 c0 -19 3 -37 7 -41 4 -3 8 -16 10 -28 5 -30 56 -111 73
-116 12 -4 12 -2 4 9 -6 8 -10 48 -10 94 2 76 -7 111 -24 100 -5 -3 -11 -1
-15 5 -3 5 -15 10 -26 10 -15 0 -19 -7 -19 -33z"/>
<path d="M571 290 c-70 -71 -108 -177 -70 -200 6 -4 8 -13 4 -20 -5 -9 -1 -10
16 -5 43 13 69 35 84 72 19 46 30 156 18 178 -9 15 -15 12 -52 -25z"/>
<path d="M994 258 c4 -103 23 -151 71 -180 34 -19 53 -13 60 20 2 12 7 27 10
32 3 6 3 16 -2 23 -4 6 -8 18 -9 25 -6 35 -102 152 -125 152 -4 0 -6 -33 -5
-72z"/>
<path d="M756 173 c-14 -14 -27 -32 -27 -39 -1 -8 -2 -20 -3 -26 -7 -47 44
-84 100 -75 56 9 82 63 57 115 -25 53 -87 65 -127 25z"/>
</g>
</svg>
